<svg xmlns="http://www.w3.org/2000/svg" width="1032.413736" height="277.470703" viewBox="0 0 1032.413736 277.470703">
  <!--
    来源 = 品牌板 PDF 第 1 页 Type3 字体 CharProcs 路径提取（非描摹）
    源文件 = utvtu-brand-sheet.pdf（第 1 页，内容流 obj 11）；字体资源 = /F5（obj 5，Type3）
    FontMatrix = [0.000488 0 0 -0.000488 0 0]；FontBBox = [3, 437, 1664, -1537]
    字形名序列 = g39, g38, v-chevron, g38, g39（= U T v T U；v 是**页路径切角**，不是字体字形）
    用到的 Widths = [1350, 1269, 1269, 1350]（字形空间单位，FontMatrix 已含 1/2048）
    路径 d 一律**逐字照抄** CharProc / 页面路径原文；步进按 Widths，未调字距、未重排、未补偿
  -->
  <g fill="#000000" fill-rule="nonzero" transform="matrix(1 0 0 -1 0 277.470703) translate(-1357.988754 -2332.240234)">
    <!-- g39 · Type3 CharProc（obj 5）· 步进 253.78418 -->
    <path transform="matrix(0.187988 0 0 0.187988 -21.988754 273.710938)" d="933.5625 -1456 m 1233.29688 -1456 l 1233.29688 -494.03125 l 1233.29688 -381.98956 1209.41663 -287.71356 1161.65625 -211.20313 c 1113.89587 -134.703125 1048.151 -77.041672 964.42188 -38.21875 c 880.70313 .59375 784.61456 20 676.15625 20 c 567.10419 20 470.48438 .59375 386.29688 -38.21875 c 302.11978 -77.041672 236.1875 -134.703125 188.5 -211.20313 c 140.8125 -287.71356 116.96875 -381.98956 116.96875 -494.03125 c 116.96875 -1456 l 417.04688 -1456 l 417.04688 -494.03125 l 417.04688 -428.875 427.43228 -375.58334 448.20313 -334.15625 c 468.98438 -292.72916 498.78125 -262.27084 537.59375 -242.78125 c 576.40625 -223.30208 622.59375 -213.5625 676.15625 -213.5625 c 730.39581 -213.5625 776.69794 -223.30208 815.0625 -242.78125 c 853.42706 -262.27084 882.76563 -292.72916 903.07813 -334.15625 c 923.40106 -375.58334 933.5625 -428.875 933.5625 -494.03125 c 933.5625 -1456 l h"/>
    <!-- g38 · Type3 CharProc（obj 5）· 步进 238.557129 -->
    <path transform="matrix(0.187988 0 0 0.187988 215.795426 273.710938)" d="780.85938 -1456 m 780.85938 0 l 481.76563 0 l 481.76563 -1456 l 780.85938 -1456 l h 1228.53125 -1456 m 1228.53125 -1221.4375 l 41.1875 -1221.4375 l 41.1875 -1456 l 1228.53125 -1456 l h"/>
    <!-- v · 第 1 页页面路径（切角 chevron，非字体字形） -->
    <path transform="matrix(1 0 0 1 463.011246 100.710938)" d="29.045372 -9.3067913 m 74.545372 132.693207 l 45.5 142 l 16.454628 132.693207 l 61.954628 -9.3067913 l 62.565723 -11.2139378 63.356976 -13.0431528 64.328384 -14.7944355 c 65.299797 -16.5457172 66.432709 -18.185417 67.727119 -19.713535 c 69.02153 -21.241655 70.45256 -22.628828 72.020218 -23.875057 c 73.587875 -25.121286 75.262039 -26.202623 77.042709 -27.119072 c 78.823372 -28.035521 80.676323 -28.769468 82.601563 -29.320917 c 84.526802 -29.872366 86.487335 -30.230719 88.483162 -30.395975 c 90.478989 -30.561234 92.471764 -30.53022 94.461487 -30.302935 c 96.45121 -30.075651 98.399643 -29.656464 100.306793 -29.045372 c 102.213936 -28.434278 104.043152 -27.643023 105.794434 -26.671606 c 107.545715 -25.70019 109.185417 -24.567276 110.713531 -23.272865 c 112.241646 -21.978456 113.628822 -20.547424 114.875053 -18.979765 c 116.121284 -17.412106 117.202629 -15.7379456 118.11908 -13.9572821 c 119.035522 -12.1766186 119.76947 -10.3236675 120.320915 -8.398428 c 120.87236 -6.4731894 121.230721 -4.5126562 121.395981 -2.5168281 c 121.561234 -.52099967 121.53022 1.47177386 121.302933 3.461493 c 121.075645 5.4512119 120.656464 7.3996449 120.045372 9.3067913 c 74.545372 151.306793 l 73.042427 155.997299 70.549561 160.083969 67.066765 163.566772 c 63.583965 167.049561 59.497311 169.54243 54.806793 171.04538 c 52.899647 171.65646 50.95121 172.07565 48.961491 172.30293 c 46.971771 172.53021 44.979 172.56123 42.98317 172.39597 c 40.987339 172.23071 39.026806 171.87236 37.10157 171.32092 c 35.176331 170.76947 33.32338 170.03552 31.542715 169.11908 c 29.762051 168.20262 28.087891 167.121277 26.520231 165.875046 c 24.952572 164.628815 23.521538 163.241653 22.227129 161.713531 c 20.93272 160.18541 19.799807 158.545715 18.828392 156.794418 c 17.856974 155.043152 17.06572 153.213943 16.454628 151.306793 c -29.045372 9.3067913 l -29.656464 7.3996449 -30.075651 5.4512119 -30.302937 3.461493 c -30.530222 1.47177386 -30.561235 -.52099967 -30.395977 -2.5168281 c -30.230719 -4.5126562 -29.872366 -6.4731898 -29.320917 -8.3984289 c -28.769468 -10.3236675 -28.035521 -12.1766195 -27.119072 -13.957283 c -26.202623 -15.7379456 -25.121286 -17.412106 -23.875057 -18.979765 c -22.628828 -20.547424 -21.241655 -21.978458 -19.713535 -23.272867 c -18.185417 -24.567276 -16.5457172 -25.70019 -14.7944345 -26.671606 c -13.0431519 -27.643023 -11.2139378 -28.434278 -9.3067913 -29.045372 c -7.3996449 -29.656464 -5.4512119 -30.075651 -3.461493 -30.302937 c -1.47177386 -30.530222 .52099967 -30.561235 2.5168281 -30.395977 c 4.5126562 -30.230719 6.4731898 -29.872366 8.3984289 -29.320917 c 10.3236675 -28.769468 12.1766195 -28.035521 13.957283 -27.119072 c 15.7379456 -26.202623 17.412106 -25.121286 18.979765 -23.875057 c 20.547424 -22.628828 21.978458 -21.241655 23.272867 -19.713535 c 24.567276 -18.185417 25.70019 -16.5457172 26.671606 -14.7944345 c 27.643023 -13.0431519 28.434278 -11.2139378 29.045372 -9.3067913 c h f"/>
    <!-- g38 · Type3 CharProc（obj 5）· 步进 238.557129 -->
    <path transform="matrix(0.187988 0 0 0.187988 578.011246 273.710938)" d="780.85938 -1456 m 780.85938 0 l 481.76563 0 l 481.76563 -1456 l 780.85938 -1456 l h 1228.53125 -1456 m 1228.53125 -1221.4375 l 41.1875 -1221.4375 l 41.1875 -1456 l 1228.53125 -1456 l h"/>
    <!-- g39 · Type3 CharProc（obj 5）· 步进 253.78418 -->
    <path transform="matrix(0.187988 0 0 0.187988 800.568376 273.710938)" d="933.5625 -1456 m 1233.29688 -1456 l 1233.29688 -494.03125 l 1233.29688 -381.98956 1209.41663 -287.71356 1161.65625 -211.20313 c 1113.89587 -134.703125 1048.151 -77.041672 964.42188 -38.21875 c 880.70313 .59375 784.61456 20 676.15625 20 c 567.10419 20 470.48438 .59375 386.29688 -38.21875 c 302.11978 -77.041672 236.1875 -134.703125 188.5 -211.20313 c 140.8125 -287.71356 116.96875 -381.98956 116.96875 -494.03125 c 116.96875 -1456 l 417.04688 -1456 l 417.04688 -494.03125 l 417.04688 -428.875 427.43228 -375.58334 448.20313 -334.15625 c 468.98438 -292.72916 498.78125 -262.27084 537.59375 -242.78125 c 576.40625 -223.30208 622.59375 -213.5625 676.15625 -213.5625 c 730.39581 -213.5625 776.69794 -223.30208 815.0625 -242.78125 c 853.42706 -262.27084 882.76563 -292.72916 903.07813 -334.15625 c 923.40106 -375.58334 933.5625 -428.875 933.5625 -494.03125 c 933.5625 -1456 l h"/>
  </g>
</svg>
